<svg width="130" height="30" viewBox="0 0 130 30" fill="none" xmlns="http://www.w3.org/2000/svg">
<path d="M28 8.70898L26.7593 12.9707L25.9672 12.1805L21.7839 16.1318L18.7806 18.9683L16.3251 21.2873L14.0129 18.9683L12.9229 17.8747L11.5739 16.5207L11.1695 16.1158L8.95471 13.893L8.10371 14.7154L7.81883 14.9901L6.46975 16.296L5.11698 17.6035L3.72379 18.9504L3.70539 18.9683L1.71118 20.8948L0 22.5503L2.72392 18.9683L6.46975 14.0393L7.81883 12.2661L8.98595 10.7301L11.5739 13.3275L12.6803 14.4389L12.9229 14.6815L16.3747 18.1423L16.6798 17.8533L18.0289 16.5796L18.6281 16.0141L20.3723 14.3658L21.7839 13.0332L24.3718 10.5892L23.5778 9.79892L28 8.70898Z" fill="#2DFF34"/>
<path d="M6.46975 8.70898V14.0393L2.72392 18.9683H2.71289V8.70898H6.46975Z" fill="#FFCE5F"/>
<path d="M27.1545 16.014C27.1545 23.7258 20.6921 29.9999 12.7446 29.9999C8.69002 29.9999 4.91844 28.3462 2.25154 25.599C1.72587 25.0585 1.24431 24.4769 0.810547 23.8561L2.46658 22.2559L5.12983 19.6853L5.87054 18.9682L6.46973 18.3902L7.81881 17.0844L8.11656 16.7972L8.82052 16.1157L8.93446 16.0033L8.9363 16.0051L8.99878 15.9445L11.5738 18.5276L12.6931 19.6515L16.3857 23.3566L18.639 21.2267L20.3851 19.5801L21.0321 18.9682L21.7838 18.2582L24.3827 15.8018L16.3378 26.5017L11.1804 21.3301L8.96566 19.1073L8.11652 19.928L5.12979 22.8161L3.87444 24.0309C6.11864 26.3697 9.31122 27.7789 12.7446 27.7789C19.4294 27.7789 24.8662 22.5022 24.8662 16.0141L27.1545 16.014Z" fill="#00B7FF"/>
<path d="M11.5744 5.60303V13.3274L8.98646 10.73L7.81934 12.2659V5.60303H11.5744Z" fill="#FFCE5F"/>
<path d="M16.6797 3.08594V17.8532L16.3746 18.1422L12.9229 14.6814V3.08594H16.6797Z" fill="#FFCE5F"/>
<path d="M21.7833 0V13.0333L20.3717 14.3658L18.6275 16.0142L18.0283 16.5797V0H21.7833Z" fill="#FFCE5F"/>
<path d="M43.8124 24.3841C39.3244 24.3841 35.9404 22.1041 35.9404 18.1681H40.3084C40.3084 20.1601 41.8204 20.9041 43.7644 20.9041C45.3724 20.9041 46.1884 20.2561 46.1884 19.3681C46.1884 17.9041 44.4844 17.5201 42.1084 16.8001C39.1324 15.8881 36.4684 14.7361 36.4684 11.6641C36.4684 7.92005 39.3964 6.45605 43.0924 6.45605C47.1004 6.45605 50.2444 8.56806 50.3644 12.0481H45.9964C45.8044 10.7281 44.7484 9.93605 43.0924 9.93605C41.7964 9.93605 40.8844 10.3681 40.8844 11.3521C40.8844 12.5041 41.8444 12.8881 44.0284 13.5361C47.2684 14.4961 50.6044 15.4081 50.6044 18.9601C50.6044 22.2481 48.1084 24.3841 43.8124 24.3841ZM55.7023 10.2481H51.8623V6.84005H55.7023V10.2481ZM55.7023 24.0001H51.8623V11.7121H55.7023V24.0001ZM65.6635 12.9361V11.7121H69.5035V22.5361C69.5035 26.9281 67.1275 28.3921 63.3595 28.3921C59.5435 28.3921 57.7675 26.3761 57.3355 24.4081H61.2235C61.4635 25.0801 62.0155 25.6321 63.3595 25.6321C65.0875 25.6321 65.6635 24.7201 65.6635 22.5361V21.8161H65.6155C65.1355 22.4641 64.0555 23.4241 62.2555 23.4241C59.1115 23.4241 57.0955 20.9281 57.0955 17.3761C57.0955 13.8241 59.1115 11.3281 62.2555 11.3281C64.0555 11.3281 65.1355 12.2881 65.6155 12.9361H65.6635ZM63.3115 20.5441C64.8715 20.5441 65.5915 19.3681 65.5915 17.3761C65.5915 15.3841 64.8715 14.2081 63.3115 14.2081C61.7515 14.2081 61.0315 15.3841 61.0315 17.3761C61.0315 19.3681 61.7515 20.5441 63.3115 20.5441ZM79.2711 11.3281C81.6471 11.3281 83.2551 12.8881 83.2551 15.6961V24.0001H79.4151V16.9201C79.4151 15.0721 78.7671 14.4481 77.4951 14.4481C76.0311 14.4481 75.1911 15.1921 75.1911 16.8961V24.0001H71.3511V11.7121H75.1911V13.4881H75.2391C75.8871 12.3601 77.0871 11.3281 79.2711 11.3281ZM88.4644 24.3841C86.0644 24.3841 84.5524 22.9681 84.5524 20.7841C84.5524 18.2401 86.6404 17.2561 89.2564 16.7041C90.6004 16.4161 92.4964 16.2241 92.4964 15.0001C92.4964 14.3281 91.9684 13.8961 90.8644 13.8961C89.4484 13.8961 88.8004 14.4721 88.6804 15.6721H85.0324C85.1524 13.3201 86.8804 11.3041 91.0324 11.3041C94.3684 11.3041 96.2164 12.6481 96.2164 16.4161V21.1681C96.2164 21.8161 96.2884 22.1041 96.6724 22.1041C96.7684 22.1041 96.8404 22.1041 96.9844 22.0801V23.9041C96.2164 24.0481 95.4244 24.1201 94.8724 24.1201C93.3364 24.1201 92.7604 23.5441 92.5684 22.5121H92.5204C91.6564 23.5921 90.2404 24.3841 88.4644 24.3841ZM90.0724 21.7441C91.6084 21.7441 92.4964 20.4481 92.4964 19.0321V18.0001C91.9924 18.1921 91.4164 18.3361 90.4084 18.5761C88.9924 18.9121 88.4884 19.5121 88.4884 20.3761C88.4884 21.3121 89.0884 21.7441 90.0724 21.7441ZM102.203 24.0001H98.3633V6.84005H102.203V24.0001Z" fill="white"/>
</svg>
